<svg id="visual" viewBox="0 0 900 100" width="900" height="100" xmlns="http://www.w3.org/2000/svg" xmlns:xlink="http://www.w3.org/1999/xlink" version="1.1"><path d="M0 9L10.7 8.5C21.3 8 42.7 7 64.2 7.2C85.7 7.3 107.3 8.7 128.8 9.7C150.3 10.7 171.7 11.3 193 10.7C214.3 10 235.7 8 257 7C278.3 6 299.7 6 321.2 7.2C342.7 8.3 364.3 10.7 385.8 11C407.3 11.3 428.7 9.7 450 9C471.3 8.3 492.7 8.7 514.2 8.7C535.7 8.7 557.3 8.3 578.8 8.2C600.3 8 621.7 8 643 8.5C664.3 9 685.7 10 707 10.7C728.3 11.3 749.7 11.7 771.2 10.8C792.7 10 814.3 8 835.8 7.5C857.3 7 878.7 8 889.3 8.5L900 9L900 0L889.3 0C878.7 0 857.3 0 835.8 0C814.3 0 792.7 0 771.2 0C749.7 0 728.3 0 707 0C685.7 0 664.3 0 643 0C621.7 0 600.3 0 578.8 0C557.3 0 535.7 0 514.2 0C492.7 0 471.3 0 450 0C428.7 0 407.3 0 385.8 0C364.3 0 342.7 0 321.2 0C299.7 0 278.3 0 257 0C235.7 0 214.3 0 193 0C171.7 0 150.3 0 128.8 0C107.3 0 85.7 0 64.2 0C42.7 0 21.3 0 10.7 0L0 0Z" fill="#fcf3eb"></path><path d="M0 27L10.7 26.5C21.3 26 42.7 25 64.2 24.7C85.7 24.3 107.3 24.7 128.8 25.3C150.3 26 171.7 27 193 27C214.3 27 235.7 26 257 25.7C278.3 25.3 299.7 25.7 321.2 26.7C342.7 27.7 364.3 29.3 385.8 27.8C407.3 26.3 428.7 21.7 450 19.5C471.3 17.3 492.7 17.7 514.2 18.8C535.7 20 557.3 22 578.8 23.3C600.3 24.7 621.7 25.3 643 26.5C664.3 27.7 685.7 29.3 707 29.3C728.3 29.3 749.7 27.7 771.2 25.7C792.7 23.7 814.3 21.3 835.8 20.2C857.3 19 878.7 19 889.3 19L900 19L900 7L889.3 6.5C878.7 6 857.3 5 835.8 5.5C814.3 6 792.7 8 771.2 8.8C749.7 9.7 728.3 9.3 707 8.7C685.7 8 664.3 7 643 6.5C621.7 6 600.3 6 578.8 6.2C557.3 6.3 535.7 6.7 514.2 6.7C492.7 6.7 471.3 6.3 450 7C428.7 7.7 407.3 9.3 385.8 9C364.3 8.7 342.7 6.3 321.2 5.2C299.7 4 278.3 4 257 5C235.7 6 214.3 8 193 8.7C171.7 9.3 150.3 8.7 128.8 7.7C107.3 6.7 85.7 5.3 64.2 5.2C42.7 5 21.3 6 10.7 6.5L0 7Z" fill="#f3d9c2"></path><path d="M0 37L10.7 35.8C21.3 34.7 42.7 32.3 64.2 31.5C85.7 30.7 107.3 31.3 128.8 31.7C150.3 32 171.7 32 193 31.8C214.3 31.7 235.7 31.3 257 31.7C278.3 32 299.7 33 321.2 34.3C342.7 35.7 364.3 37.3 385.8 36.3C407.3 35.3 428.7 31.7 450 29.8C471.3 28 492.7 28 514.2 28.2C535.7 28.3 557.3 28.7 578.8 29.3C600.3 30 621.7 31 643 33.2C664.3 35.3 685.7 38.7 707 38.8C728.3 39 749.7 36 771.2 32.8C792.7 29.7 814.3 26.3 835.8 25C857.3 23.7 878.7 24.3 889.3 24.7L900 25L900 17L889.3 17C878.7 17 857.3 17 835.8 18.2C814.3 19.3 792.7 21.7 771.2 23.7C749.7 25.7 728.3 27.3 707 27.3C685.7 27.3 664.3 25.7 643 24.5C621.7 23.3 600.3 22.7 578.8 21.3C557.3 20 535.7 18 514.2 16.8C492.7 15.7 471.3 15.3 450 17.5C428.7 19.7 407.3 24.3 385.8 25.8C364.3 27.3 342.7 25.7 321.2 24.7C299.7 23.7 278.3 23.3 257 23.7C235.7 24 214.3 25 193 25C171.7 25 150.3 24 128.8 23.3C107.3 22.7 85.7 22.3 64.2 22.7C42.7 23 21.3 24 10.7 24.5L0 25Z" fill="#eac09b"></path><path d="M0 60L10.7 59.8C21.3 59.7 42.7 59.3 64.2 59C85.7 58.7 107.3 58.3 128.8 57.7C150.3 57 171.7 56 193 55.7C214.3 55.3 235.7 55.7 257 56.7C278.3 57.7 299.7 59.3 321.2 60C342.7 60.7 364.3 60.3 385.8 60.2C407.3 60 428.7 60 450 56.8C471.3 53.7 492.7 47.3 514.2 46.2C535.7 45 557.3 49 578.8 53C600.3 57 621.7 61 643 63.2C664.3 65.3 685.7 65.7 707 63C728.3 60.3 749.7 54.7 771.2 51.5C792.7 48.3 814.3 47.7 835.8 46.2C857.3 44.7 878.7 42.3 889.3 41.2L900 40L900 23L889.3 22.7C878.7 22.3 857.3 21.7 835.8 23C814.3 24.3 792.7 27.7 771.2 30.8C749.7 34 728.3 37 707 36.8C685.7 36.7 664.3 33.3 643 31.2C621.7 29 600.3 28 578.8 27.3C557.3 26.7 535.7 26.3 514.2 26.2C492.7 26 471.3 26 450 27.8C428.7 29.7 407.3 33.3 385.8 34.3C364.3 35.3 342.7 33.7 321.2 32.3C299.7 31 278.3 30 257 29.7C235.7 29.3 214.3 29.7 193 29.8C171.7 30 150.3 30 128.8 29.7C107.3 29.3 85.7 28.7 64.2 29.5C42.7 30.3 21.3 32.7 10.7 33.8L0 35Z" fill="#dfa676"></path><path d="M0 68L10.7 69C21.3 70 42.7 72 64.2 72C85.7 72 107.3 70 128.8 68.3C150.3 66.7 171.7 65.3 193 64.3C214.3 63.3 235.7 62.7 257 63C278.3 63.3 299.7 64.7 321.2 65.5C342.7 66.3 364.3 66.7 385.8 67.2C407.3 67.7 428.7 68.3 450 65.5C471.3 62.7 492.7 56.3 514.2 56C535.7 55.7 557.3 61.3 578.8 66C600.3 70.7 621.7 74.3 643 75.2C664.3 76 685.7 74 707 71C728.3 68 749.7 64 771.2 61.5C792.7 59 814.3 58 835.8 56.3C857.3 54.7 878.7 52.3 889.3 51.2L900 50L900 38L889.3 39.2C878.7 40.3 857.3 42.7 835.8 44.2C814.3 45.7 792.7 46.3 771.2 49.5C749.7 52.7 728.3 58.3 707 61C685.7 63.7 664.3 63.3 643 61.2C621.7 59 600.3 55 578.8 51C557.3 47 535.7 43 514.2 44.2C492.7 45.3 471.3 51.7 450 54.8C428.7 58 407.3 58 385.8 58.2C364.3 58.3 342.7 58.7 321.2 58C299.7 57.3 278.3 55.7 257 54.7C235.7 53.7 214.3 53.3 193 53.7C171.7 54 150.3 55 128.8 55.7C107.3 56.3 85.7 56.7 64.2 57C42.7 57.3 21.3 57.7 10.7 57.8L0 58Z" fill="#d38c52"></path><path d="M0 88L10.7 89.2C21.3 90.3 42.7 92.7 64.2 93.7C85.7 94.7 107.3 94.3 128.8 94.2C150.3 94 171.7 94 193 92.7C214.3 91.3 235.7 88.7 257 88.3C278.3 88 299.7 90 321.2 89.8C342.7 89.7 364.3 87.3 385.8 86.2C407.3 85 428.7 85 450 86C471.3 87 492.7 89 514.2 89.7C535.7 90.3 557.3 89.7 578.8 89.8C600.3 90 621.7 91 643 91.5C664.3 92 685.7 92 707 91.3C728.3 90.7 749.7 89.3 771.2 88.3C792.7 87.3 814.3 86.7 835.8 87.2C857.3 87.7 878.7 89.3 889.3 90.2L900 91L900 48L889.3 49.2C878.7 50.3 857.3 52.7 835.8 54.3C814.3 56 792.7 57 771.2 59.5C749.7 62 728.3 66 707 69C685.7 72 664.3 74 643 73.2C621.7 72.3 600.3 68.7 578.8 64C557.3 59.3 535.7 53.7 514.2 54C492.7 54.3 471.3 60.7 450 63.5C428.7 66.3 407.3 65.7 385.8 65.2C364.3 64.7 342.7 64.3 321.2 63.5C299.7 62.7 278.3 61.3 257 61C235.7 60.7 214.3 61.3 193 62.3C171.7 63.3 150.3 64.7 128.8 66.3C107.3 68 85.7 70 64.2 70C42.7 70 21.3 68 10.7 67L0 66Z" fill="#c6732e"></path><path d="M0 101L10.7 101C21.3 101 42.7 101 64.2 101C85.7 101 107.3 101 128.8 101C150.3 101 171.7 101 193 101C214.3 101 235.7 101 257 101C278.3 101 299.7 101 321.2 101C342.7 101 364.3 101 385.8 101C407.3 101 428.7 101 450 101C471.3 101 492.7 101 514.2 101C535.7 101 557.3 101 578.8 101C600.3 101 621.7 101 643 101C664.3 101 685.7 101 707 101C728.3 101 749.7 101 771.2 101C792.7 101 814.3 101 835.8 101C857.3 101 878.7 101 889.3 101L900 101L900 89L889.3 88.2C878.7 87.3 857.3 85.7 835.8 85.2C814.3 84.7 792.7 85.3 771.2 86.3C749.7 87.3 728.3 88.7 707 89.3C685.7 90 664.3 90 643 89.5C621.7 89 600.3 88 578.8 87.8C557.3 87.7 535.7 88.3 514.2 87.7C492.7 87 471.3 85 450 84C428.7 83 407.3 83 385.8 84.2C364.3 85.3 342.7 87.7 321.2 87.8C299.7 88 278.3 86 257 86.3C235.7 86.7 214.3 89.3 193 90.7C171.7 92 150.3 92 128.8 92.2C107.3 92.3 85.7 92.7 64.2 91.7C42.7 90.7 21.3 88.3 10.7 87.2L0 86Z" fill="#b85800"></path></svg>