<svg id="visual" viewBox="0 0 900 20" width="900" height="20" xmlns="http://www.w3.org/2000/svg" xmlns:xlink="http://www.w3.org/1999/xlink" version="1.1"><path d="M0 16L7.8 15.3C15.7 14.7 31.3 13.3 47.2 12.7C63 12 79 12 94.8 12.2C110.7 12.3 126.3 12.7 142 12.8C157.7 13 173.3 13 189.2 13C205 13 221 13 236.8 13.2C252.7 13.3 268.3 13.7 284.2 14.2C300 14.7 316 15.3 331.8 15.3C347.7 15.3 363.3 14.7 379 14.2C394.7 13.7 410.3 13.3 426.2 13.5C442 13.7 458 14.3 473.8 14.8C489.7 15.3 505.3 15.7 521 15.7C536.7 15.7 552.3 15.3 568.2 15.2C584 15 600 15 615.8 14.5C631.7 14 647.3 13 663.2 12.5C679 12 695 12 710.8 12.2C726.7 12.3 742.3 12.7 758 13.3C773.7 14 789.3 15 805.2 15.5C821 16 837 16 852.8 15.5C868.7 15 884.3 14 892.2 13.5L900 13L900 21L892.2 21C884.3 21 868.7 21 852.8 21C837 21 821 21 805.2 21C789.3 21 773.7 21 758 21C742.3 21 726.7 21 710.8 21C695 21 679 21 663.2 21C647.3 21 631.7 21 615.8 21C600 21 584 21 568.2 21C552.3 21 536.7 21 521 21C505.3 21 489.7 21 473.8 21C458 21 442 21 426.2 21C410.3 21 394.7 21 379 21C363.3 21 347.7 21 331.8 21C316 21 300 21 284.2 21C268.3 21 252.7 21 236.8 21C221 21 205 21 189.2 21C173.3 21 157.7 21 142 21C126.3 21 110.7 21 94.8 21C79 21 63 21 47.2 21C31.3 21 15.7 21 7.8 21L0 21Z" fill="#FCF3EB" stroke-linecap="round" stroke-linejoin="miter"></path></svg>