<svg id="visual" viewBox="0 0 900 20" width="900" height="20" xmlns="http://www.w3.org/2000/svg" xmlns:xlink="http://www.w3.org/1999/xlink" version="1.1"><path d="M0 5L7.8 5C15.7 5 31.3 5 47.2 4.5C63 4 79 3 94.8 2.7C110.7 2.3 126.3 2.7 142 3.2C157.7 3.7 173.3 4.3 189.2 4.8C205 5.3 221 5.7 236.8 5.2C252.7 4.7 268.3 3.3 284.2 2.8C300 2.3 316 2.7 331.8 2.8C347.7 3 363.3 3 379 3.2C394.7 3.3 410.3 3.7 426.2 3.7C442 3.7 458 3.3 473.8 3.5C489.7 3.7 505.3 4.3 521 4.3C536.7 4.3 552.3 3.7 568.2 3.7C584 3.7 600 4.3 615.8 4.8C631.7 5.3 647.3 5.7 663.2 5.5C679 5.3 695 4.7 710.8 4.5C726.7 4.3 742.3 4.7 758 4.7C773.7 4.7 789.3 4.3 805.2 4.2C821 4 837 4 852.8 3.8C868.7 3.7 884.3 3.3 892.2 3.2L900 3L900 0L892.2 0C884.3 0 868.7 0 852.8 0C837 0 821 0 805.2 0C789.3 0 773.7 0 758 0C742.3 0 726.7 0 710.8 0C695 0 679 0 663.2 0C647.3 0 631.7 0 615.8 0C600 0 584 0 568.2 0C552.3 0 536.7 0 521 0C505.3 0 489.7 0 473.8 0C458 0 442 0 426.2 0C410.3 0 394.7 0 379 0C363.3 0 347.7 0 331.8 0C316 0 300 0 284.2 0C268.3 0 252.7 0 236.8 0C221 0 205 0 189.2 0C173.3 0 157.7 0 142 0C126.3 0 110.7 0 94.8 0C79 0 63 0 47.2 0C31.3 0 15.7 0 7.8 0L0 0Z" fill="#FCF3EB" stroke-linecap="round" stroke-linejoin="miter"></path></svg>