<svg id="visual" viewBox="0 0 900 20" width="900" height="20" xmlns="http://www.w3.org/2000/svg" xmlns:xlink="http://www.w3.org/1999/xlink" version="1.1"><rect x="0" y="0" width="900" height="20" fill="#B85800"></rect><path d="M0 17L10 16.5C20 16 40 15 60 13.5C80 12 100 10 120 9.5C140 9 160 10 180 11C200 12 220 13 240 12.5C260 12 280 10 300 10.2C320 10.3 340 12.7 360 14.2C380 15.7 400 16.3 420 16C440 15.7 460 14.3 480 13C500 11.7 520 10.3 540 10.5C560 10.7 580 12.3 600 13.8C620 15.3 640 16.7 660 16.7C680 16.7 700 15.3 720 13.7C740 12 760 10 780 10.3C800 10.7 820 13.3 840 14.2C860 15 880 14 890 13.5L900 13L900 21L890 21C880 21 860 21 840 21C820 21 800 21 780 21C760 21 740 21 720 21C700 21 680 21 660 21C640 21 620 21 600 21C580 21 560 21 540 21C520 21 500 21 480 21C460 21 440 21 420 21C400 21 380 21 360 21C340 21 320 21 300 21C280 21 260 21 240 21C220 21 200 21 180 21C160 21 140 21 120 21C100 21 80 21 60 21C40 21 20 21 10 21L0 21Z" fill="#BA4219" stroke-linecap="round" stroke-linejoin="miter"></path></svg>