<svg id="visual" viewBox="0 0 900 150" width="900" height="150" xmlns="http://www.w3.org/2000/svg" xmlns:xlink="http://www.w3.org/1999/xlink" version="1.1"><path d="M0 13L10.7 12.3C21.3 11.7 42.7 10.3 64.2 10.7C85.7 11 107.3 13 128.8 14.5C150.3 16 171.7 17 193 16C214.3 15 235.7 12 257 10.5C278.3 9 299.7 9 321.2 10.7C342.7 12.3 364.3 15.7 385.8 16.2C407.3 16.7 428.7 14.3 450 13.3C471.3 12.3 492.7 12.7 514.2 12.7C535.7 12.7 557.3 12.3 578.8 12.2C600.3 12 621.7 12 643 12.7C664.3 13.3 685.7 14.7 707 15.7C728.3 16.7 749.7 17.3 771.2 16.2C792.7 15 814.3 12 835.8 11.2C857.3 10.3 878.7 11.7 889.3 12.3L900 13L900 0L889.3 0C878.7 0 857.3 0 835.8 0C814.3 0 792.7 0 771.2 0C749.7 0 728.3 0 707 0C685.7 0 664.3 0 643 0C621.7 0 600.3 0 578.8 0C557.3 0 535.7 0 514.2 0C492.7 0 471.3 0 450 0C428.7 0 407.3 0 385.8 0C364.3 0 342.7 0 321.2 0C299.7 0 278.3 0 257 0C235.7 0 214.3 0 193 0C171.7 0 150.3 0 128.8 0C107.3 0 85.7 0 64.2 0C42.7 0 21.3 0 10.7 0L0 0Z" fill="#b85800"></path><path d="M0 40L10.7 39.3C21.3 38.7 42.7 37.3 64.2 36.8C85.7 36.3 107.3 36.7 128.8 37.7C150.3 38.7 171.7 40.3 193 40.3C214.3 40.3 235.7 38.7 257 38.2C278.3 37.7 299.7 38.3 321.2 39.8C342.7 41.3 364.3 43.7 385.8 41.3C407.3 39 428.7 32 450 28.8C471.3 25.7 492.7 26.3 514.2 28.2C535.7 30 557.3 33 578.8 35C600.3 37 621.7 38 643 39.7C664.3 41.3 685.7 43.7 707 43.7C728.3 43.7 749.7 41.3 771.2 38.3C792.7 35.3 814.3 31.7 835.8 29.8C857.3 28 878.7 28 889.3 28L900 28L900 11L889.3 10.3C878.7 9.7 857.3 8.3 835.8 9.2C814.3 10 792.7 13 771.2 14.2C749.7 15.3 728.3 14.7 707 13.7C685.7 12.7 664.3 11.3 643 10.7C621.7 10 600.3 10 578.8 10.2C557.3 10.3 535.7 10.7 514.2 10.7C492.7 10.7 471.3 10.3 450 11.3C428.7 12.3 407.3 14.7 385.8 14.2C364.3 13.7 342.7 10.3 321.2 8.7C299.7 7 278.3 7 257 8.5C235.7 10 214.3 13 193 14C171.7 15 150.3 14 128.8 12.5C107.3 11 85.7 9 64.2 8.7C42.7 8.3 21.3 9.7 10.7 10.3L0 11Z" fill="#c6732e"></path><path d="M0 55L10.7 53.3C21.3 51.7 42.7 48.3 64.2 47.2C85.7 46 107.3 47 128.8 47.5C150.3 48 171.7 48 193 47.7C214.3 47.3 235.7 46.7 257 47.2C278.3 47.7 299.7 49.3 321.2 51.3C342.7 53.3 364.3 55.7 385.8 54.2C407.3 52.7 428.7 47.3 450 44.7C471.3 42 492.7 42 514.2 42.2C535.7 42.3 557.3 42.7 578.8 43.7C600.3 44.7 621.7 46.3 643 49.5C664.3 52.7 685.7 57.3 707 57.5C728.3 57.7 749.7 53.3 771.2 48.7C792.7 44 814.3 39 835.8 37C857.3 35 878.7 36 889.3 36.5L900 37L900 26L889.3 26C878.7 26 857.3 26 835.8 27.8C814.3 29.7 792.7 33.3 771.2 36.3C749.7 39.3 728.3 41.7 707 41.7C685.7 41.7 664.3 39.3 643 37.7C621.7 36 600.3 35 578.8 33C557.3 31 535.7 28 514.2 26.2C492.7 24.3 471.3 23.7 450 26.8C428.7 30 407.3 37 385.8 39.3C364.3 41.7 342.7 39.3 321.2 37.8C299.7 36.3 278.3 35.7 257 36.2C235.7 36.7 214.3 38.3 193 38.3C171.7 38.3 150.3 36.7 128.8 35.7C107.3 34.7 85.7 34.3 64.2 34.8C42.7 35.3 21.3 36.7 10.7 37.3L0 38Z" fill="#d38c52"></path><path d="M0 90L10.7 89.7C21.3 89.3 42.7 88.7 64.2 88C85.7 87.3 107.3 86.7 128.8 85.7C150.3 84.7 171.7 83.3 193 83C214.3 82.7 235.7 83.3 257 84.8C278.3 86.3 299.7 88.7 321.2 89.7C342.7 90.7 364.3 90.3 385.8 90.2C407.3 90 428.7 90 450 85.2C471.3 80.3 492.7 70.7 514.2 68.8C535.7 67 557.3 73 578.8 79C600.3 85 621.7 91 643 94.3C664.3 97.7 685.7 98.3 707 94.3C728.3 90.3 749.7 81.7 771.2 76.8C792.7 72 814.3 71 835.8 68.8C857.3 66.7 878.7 63.3 889.3 61.7L900 60L900 35L889.3 34.5C878.7 34 857.3 33 835.8 35C814.3 37 792.7 42 771.2 46.7C749.7 51.3 728.3 55.7 707 55.5C685.7 55.3 664.3 50.7 643 47.5C621.7 44.3 600.3 42.7 578.8 41.7C557.3 40.7 535.7 40.3 514.2 40.2C492.7 40 471.3 40 450 42.7C428.7 45.3 407.3 50.7 385.8 52.2C364.3 53.7 342.7 51.3 321.2 49.3C299.7 47.3 278.3 45.7 257 45.2C235.7 44.7 214.3 45.3 193 45.7C171.7 46 150.3 46 128.8 45.5C107.3 45 85.7 44 64.2 45.2C42.7 46.3 21.3 49.7 10.7 51.3L0 53Z" fill="#dfa676"></path><path d="M0 102L10.7 103.5C21.3 105 42.7 108 64.2 108C85.7 108 107.3 105 128.8 102.5C150.3 100 171.7 98 193 96.5C214.3 95 235.7 94 257 94.5C278.3 95 299.7 97 321.2 98.2C342.7 99.3 364.3 99.7 385.8 100.3C407.3 101 428.7 102 450 97.8C471.3 93.7 492.7 84.3 514.2 83.8C535.7 83.3 557.3 91.7 578.8 98.7C600.3 105.7 621.7 111.3 643 112.7C664.3 114 685.7 111 707 106.5C728.3 102 749.7 96 771.2 92.2C792.7 88.3 814.3 86.7 835.8 84.2C857.3 81.7 878.7 78.3 889.3 76.7L900 75L900 58L889.3 59.7C878.7 61.3 857.3 64.7 835.8 66.8C814.3 69 792.7 70 771.2 74.8C749.7 79.7 728.3 88.3 707 92.3C685.7 96.3 664.3 95.7 643 92.3C621.7 89 600.3 83 578.8 77C557.3 71 535.7 65 514.2 66.8C492.7 68.7 471.3 78.3 450 83.2C428.7 88 407.3 88 385.8 88.2C364.3 88.3 342.7 88.7 321.2 87.7C299.7 86.7 278.3 84.3 257 82.8C235.7 81.3 214.3 80.7 193 81C171.7 81.3 150.3 82.7 128.8 83.7C107.3 84.7 85.7 85.3 64.2 86C42.7 86.7 21.3 87.3 10.7 87.7L0 88Z" fill="#eac09b"></path><path d="M0 132L10.7 133.7C21.3 135.3 42.7 138.7 64.2 140.2C85.7 141.7 107.3 141.3 128.8 141.2C150.3 141 171.7 141 193 139C214.3 137 235.7 133 257 132.5C278.3 132 299.7 135 321.2 134.7C342.7 134.3 364.3 130.7 385.8 128.8C407.3 127 428.7 127 450 128.5C471.3 130 492.7 133 514.2 134C535.7 135 557.3 134 578.8 134.3C600.3 134.7 621.7 136.3 643 137.2C664.3 138 685.7 138 707 137C728.3 136 749.7 134 771.2 132.5C792.7 131 814.3 130 835.8 130.7C857.3 131.3 878.7 133.7 889.3 134.8L900 136L900 73L889.3 74.7C878.7 76.3 857.3 79.7 835.8 82.2C814.3 84.7 792.7 86.3 771.2 90.2C749.7 94 728.3 100 707 104.5C685.7 109 664.3 112 643 110.7C621.7 109.3 600.3 103.7 578.8 96.7C557.3 89.7 535.7 81.3 514.2 81.8C492.7 82.3 471.3 91.7 450 95.8C428.7 100 407.3 99 385.8 98.3C364.3 97.7 342.7 97.3 321.2 96.2C299.7 95 278.3 93 257 92.5C235.7 92 214.3 93 193 94.5C171.7 96 150.3 98 128.8 100.5C107.3 103 85.7 106 64.2 106C42.7 106 21.3 103 10.7 101.5L0 100Z" fill="#f3d9c2"></path><path d="M0 151L10.7 151C21.3 151 42.7 151 64.2 151C85.7 151 107.3 151 128.8 151C150.3 151 171.7 151 193 151C214.3 151 235.7 151 257 151C278.3 151 299.7 151 321.2 151C342.7 151 364.3 151 385.8 151C407.3 151 428.7 151 450 151C471.3 151 492.7 151 514.2 151C535.7 151 557.3 151 578.8 151C600.3 151 621.7 151 643 151C664.3 151 685.7 151 707 151C728.3 151 749.7 151 771.2 151C792.7 151 814.3 151 835.8 151C857.3 151 878.7 151 889.3 151L900 151L900 134L889.3 132.8C878.7 131.7 857.3 129.3 835.8 128.7C814.3 128 792.7 129 771.2 130.5C749.7 132 728.3 134 707 135C685.7 136 664.3 136 643 135.2C621.7 134.3 600.3 132.7 578.8 132.3C557.3 132 535.7 133 514.2 132C492.7 131 471.3 128 450 126.5C428.7 125 407.3 125 385.8 126.8C364.3 128.7 342.7 132.3 321.2 132.7C299.7 133 278.3 130 257 130.5C235.7 131 214.3 135 193 137C171.7 139 150.3 139 128.8 139.2C107.3 139.3 85.7 139.7 64.2 138.2C42.7 136.7 21.3 133.3 10.7 131.7L0 130Z" fill="#fcf3eb"></path></svg>