<svg id="visual" viewBox="0 0 900 150" width="900" height="150" xmlns="http://www.w3.org/2000/svg" xmlns:xlink="http://www.w3.org/1999/xlink" version="1.1"><path d="M0 9L10.7 9.2C21.3 9.3 42.7 9.7 64.2 10.7C85.7 11.7 107.3 13.3 128.8 13.2C150.3 13 171.7 11 193 12.5C214.3 14 235.7 19 257 20.5C278.3 22 299.7 20 321.2 20.2C342.7 20.3 364.3 22.7 385.8 21.7C407.3 20.7 428.7 16.3 450 13.3C471.3 10.3 492.7 8.7 514.2 8.2C535.7 7.7 557.3 8.3 578.8 8.7C600.3 9 621.7 9 643 10.2C664.3 11.3 685.7 13.7 707 13.3C728.3 13 749.7 10 771.2 9.5C792.7 9 814.3 11 835.8 11.5C857.3 12 878.7 11 889.3 10.5L900 10L900 0L889.3 0C878.7 0 857.3 0 835.8 0C814.3 0 792.7 0 771.2 0C749.7 0 728.3 0 707 0C685.7 0 664.3 0 643 0C621.7 0 600.3 0 578.8 0C557.3 0 535.7 0 514.2 0C492.7 0 471.3 0 450 0C428.7 0 407.3 0 385.8 0C364.3 0 342.7 0 321.2 0C299.7 0 278.3 0 257 0C235.7 0 214.3 0 193 0C171.7 0 150.3 0 128.8 0C107.3 0 85.7 0 64.2 0C42.7 0 21.3 0 10.7 0L0 0Z" fill="#fcf3eb"></path><path d="M0 21L10.7 21C21.3 21 42.7 21 64.2 21.7C85.7 22.3 107.3 23.7 128.8 24.2C150.3 24.7 171.7 24.3 193 24.8C214.3 25.3 235.7 26.7 257 26.8C278.3 27 299.7 26 321.2 26.5C342.7 27 364.3 29 385.8 29C407.3 29 428.7 27 450 24C471.3 21 492.7 17 514.2 17.5C535.7 18 557.3 23 578.8 24C600.3 25 621.7 22 643 22.3C664.3 22.7 685.7 26.3 707 26.2C728.3 26 749.7 22 771.2 21.5C792.7 21 814.3 24 835.8 24.7C857.3 25.3 878.7 23.7 889.3 22.8L900 22L900 8L889.3 8.5C878.7 9 857.3 10 835.8 9.5C814.3 9 792.7 7 771.2 7.5C749.7 8 728.3 11 707 11.3C685.7 11.7 664.3 9.3 643 8.2C621.7 7 600.3 7 578.8 6.7C557.3 6.3 535.7 5.7 514.2 6.2C492.7 6.7 471.3 8.3 450 11.3C428.7 14.3 407.3 18.7 385.8 19.7C364.3 20.7 342.7 18.3 321.2 18.2C299.7 18 278.3 20 257 18.5C235.7 17 214.3 12 193 10.5C171.7 9 150.3 11 128.8 11.2C107.3 11.3 85.7 9.7 64.2 8.7C42.7 7.7 21.3 7.3 10.7 7.2L0 7Z" fill="#f3d9c2"></path><path d="M0 55L10.7 55.3C21.3 55.7 42.7 56.3 64.2 55.3C85.7 54.3 107.3 51.7 128.8 54.3C150.3 57 171.7 65 193 67.8C214.3 70.7 235.7 68.3 257 67.8C278.3 67.3 299.7 68.7 321.2 66.7C342.7 64.7 364.3 59.3 385.8 61.3C407.3 63.3 428.7 72.7 450 72.3C471.3 72 492.7 62 514.2 59.5C535.7 57 557.3 62 578.8 61.3C600.3 60.7 621.7 54.3 643 54.8C664.3 55.3 685.7 62.7 707 70.2C728.3 77.7 749.7 85.3 771.2 82.8C792.7 80.3 814.3 67.7 835.8 63.2C857.3 58.7 878.7 62.3 889.3 64.2L900 66L900 20L889.3 20.8C878.7 21.7 857.3 23.3 835.8 22.7C814.3 22 792.7 19 771.2 19.5C749.7 20 728.3 24 707 24.2C685.7 24.3 664.3 20.7 643 20.3C621.7 20 600.3 23 578.8 22C557.3 21 535.7 16 514.2 15.5C492.7 15 471.3 19 450 22C428.7 25 407.3 27 385.8 27C364.3 27 342.7 25 321.2 24.5C299.7 24 278.3 25 257 24.8C235.7 24.7 214.3 23.3 193 22.8C171.7 22.3 150.3 22.7 128.8 22.2C107.3 21.7 85.7 20.3 64.2 19.7C42.7 19 21.3 19 10.7 19L0 19Z" fill="#eac09b"></path><path d="M0 72L10.7 70.7C21.3 69.3 42.7 66.7 64.2 63.7C85.7 60.7 107.3 57.3 128.8 59.7C150.3 62 171.7 70 193 75C214.3 80 235.7 82 257 82.7C278.3 83.3 299.7 82.7 321.2 80.2C342.7 77.7 364.3 73.3 385.8 76.3C407.3 79.3 428.7 89.7 450 88.5C471.3 87.3 492.7 74.7 514.2 70.7C535.7 66.7 557.3 71.3 578.8 71.3C600.3 71.3 621.7 66.7 643 68.7C664.3 70.7 685.7 79.3 707 85.7C728.3 92 749.7 96 771.2 92.5C792.7 89 814.3 78 835.8 74.5C857.3 71 878.7 75 889.3 77L900 79L900 64L889.3 62.2C878.7 60.3 857.3 56.7 835.8 61.2C814.3 65.7 792.7 78.3 771.2 80.8C749.7 83.3 728.3 75.7 707 68.2C685.7 60.7 664.3 53.3 643 52.8C621.7 52.3 600.3 58.7 578.8 59.3C557.3 60 535.7 55 514.2 57.5C492.7 60 471.3 70 450 70.3C428.7 70.7 407.3 61.3 385.8 59.3C364.3 57.3 342.7 62.7 321.2 64.7C299.7 66.7 278.3 65.3 257 65.8C235.7 66.3 214.3 68.7 193 65.8C171.7 63 150.3 55 128.8 52.3C107.3 49.7 85.7 52.3 64.2 53.3C42.7 54.3 21.3 53.7 10.7 53.3L0 53Z" fill="#dfa676"></path><path d="M0 108L10.7 108C21.3 108 42.7 108 64.2 108.2C85.7 108.3 107.3 108.7 128.8 109.7C150.3 110.7 171.7 112.3 193 115.2C214.3 118 235.7 122 257 123.7C278.3 125.3 299.7 124.7 321.2 122.3C342.7 120 364.3 116 385.8 114.5C407.3 113 428.7 114 450 112C471.3 110 492.7 105 514.2 104.3C535.7 103.7 557.3 107.3 578.8 107.2C600.3 107 621.7 103 643 101.2C664.3 99.3 685.7 99.7 707 102.8C728.3 106 749.7 112 771.2 111.8C792.7 111.7 814.3 105.3 835.8 101.7C857.3 98 878.7 97 889.3 96.5L900 96L900 77L889.3 75C878.7 73 857.3 69 835.8 72.5C814.3 76 792.7 87 771.2 90.5C749.7 94 728.3 90 707 83.7C685.7 77.3 664.3 68.7 643 66.7C621.7 64.7 600.3 69.3 578.8 69.3C557.3 69.3 535.7 64.7 514.2 68.7C492.7 72.7 471.3 85.3 450 86.5C428.7 87.7 407.3 77.3 385.8 74.3C364.3 71.3 342.7 75.7 321.2 78.2C299.7 80.7 278.3 81.3 257 80.7C235.7 80 214.3 78 193 73C171.7 68 150.3 60 128.8 57.7C107.3 55.3 85.7 58.7 64.2 61.7C42.7 64.7 21.3 67.3 10.7 68.7L0 70Z" fill="#d38c52"></path><path d="M0 136L10.7 133.3C21.3 130.7 42.7 125.3 64.2 123.2C85.7 121 107.3 122 128.8 123.5C150.3 125 171.7 127 193 128.5C214.3 130 235.7 131 257 132.2C278.3 133.3 299.7 134.7 321.2 133.2C342.7 131.7 364.3 127.3 385.8 127.8C407.3 128.3 428.7 133.7 450 134.3C471.3 135 492.7 131 514.2 128C535.7 125 557.3 123 578.8 122C600.3 121 621.7 121 643 121.8C664.3 122.7 685.7 124.3 707 127.7C728.3 131 749.7 136 771.2 135.2C792.7 134.3 814.3 127.7 835.8 123.8C857.3 120 878.7 119 889.3 118.5L900 118L900 94L889.3 94.5C878.7 95 857.3 96 835.8 99.7C814.3 103.3 792.7 109.7 771.2 109.8C749.7 110 728.3 104 707 100.8C685.7 97.7 664.3 97.3 643 99.2C621.7 101 600.3 105 578.8 105.2C557.3 105.3 535.7 101.7 514.2 102.3C492.7 103 471.3 108 450 110C428.7 112 407.3 111 385.8 112.5C364.3 114 342.7 118 321.2 120.3C299.7 122.7 278.3 123.3 257 121.7C235.7 120 214.3 116 193 113.2C171.7 110.3 150.3 108.7 128.8 107.7C107.3 106.7 85.7 106.3 64.2 106.2C42.7 106 21.3 106 10.7 106L0 106Z" fill="#c6732e"></path><path d="M0 151L10.7 151C21.3 151 42.7 151 64.2 151C85.7 151 107.3 151 128.8 151C150.3 151 171.7 151 193 151C214.3 151 235.7 151 257 151C278.3 151 299.7 151 321.2 151C342.7 151 364.3 151 385.8 151C407.3 151 428.7 151 450 151C471.3 151 492.7 151 514.2 151C535.7 151 557.3 151 578.8 151C600.3 151 621.7 151 643 151C664.3 151 685.7 151 707 151C728.3 151 749.7 151 771.2 151C792.7 151 814.3 151 835.8 151C857.3 151 878.7 151 889.3 151L900 151L900 116L889.3 116.5C878.7 117 857.3 118 835.8 121.8C814.3 125.7 792.7 132.3 771.2 133.2C749.7 134 728.3 129 707 125.7C685.7 122.3 664.3 120.7 643 119.8C621.7 119 600.3 119 578.8 120C557.3 121 535.7 123 514.2 126C492.7 129 471.3 133 450 132.3C428.7 131.7 407.3 126.3 385.8 125.8C364.3 125.3 342.7 129.7 321.2 131.2C299.7 132.7 278.3 131.3 257 130.2C235.7 129 214.3 128 193 126.5C171.7 125 150.3 123 128.8 121.5C107.3 120 85.7 119 64.2 121.2C42.7 123.3 21.3 128.7 10.7 131.3L0 134Z" fill="#b85800"></path></svg>