<svg id="visual" viewBox="0 0 900 20" width="900" height="20" xmlns="http://www.w3.org/2000/svg" xmlns:xlink="http://www.w3.org/1999/xlink" version="1.1"><path d="M0 15L10.7 14.8C21.3 14.7 42.7 14.3 64.2 14C85.7 13.7 107.3 13.3 128.8 13.2C150.3 13 171.7 13 193 13.2C214.3 13.3 235.7 13.7 257 14C278.3 14.3 299.7 14.7 321.2 14.5C342.7 14.3 364.3 13.7 385.8 13.7C407.3 13.7 428.7 14.3 450 14.8C471.3 15.3 492.7 15.7 514.2 15.3C535.7 15 557.3 14 578.8 13.3C600.3 12.7 621.7 12.3 643 12.5C664.3 12.7 685.7 13.3 707 13.5C728.3 13.7 749.7 13.3 771.2 13.5C792.7 13.7 814.3 14.3 835.8 14.7C857.3 15 878.7 15 889.3 15L900 15L900 21L889.3 21C878.7 21 857.3 21 835.8 21C814.3 21 792.7 21 771.2 21C749.7 21 728.3 21 707 21C685.7 21 664.3 21 643 21C621.7 21 600.3 21 578.8 21C557.3 21 535.7 21 514.2 21C492.7 21 471.3 21 450 21C428.7 21 407.3 21 385.8 21C364.3 21 342.7 21 321.2 21C299.7 21 278.3 21 257 21C235.7 21 214.3 21 193 21C171.7 21 150.3 21 128.8 21C107.3 21 85.7 21 64.2 21C42.7 21 21.3 21 10.7 21L0 21Z" fill="#fff" stroke-linecap="round" stroke-linejoin="miter"></path></svg>