<svg id="visual" viewBox="0 0 900 20" width="900" height="20" xmlns="http://www.w3.org/2000/svg" xmlns:xlink="http://www.w3.org/1999/xlink" version="1.1"><rect x="0" y="0" width="900" height="20" fill="#FCF3EB"></rect><path d="M0 7L12.5 7.7C25 8.3 50 9.7 75 9.8C100 10 125 9 150 9C175 9 200 10 225 9.7C250 9.3 275 7.7 300 7C325 6.3 350 6.7 375 7.7C400 8.7 425 10.3 450 10.3C475 10.3 500 8.7 525 8.3C550 8 575 9 600 9.3C625 9.7 650 9.3 675 9.2C700 9 725 9 750 9.5C775 10 800 11 825 11.2C850 11.3 875 10.7 887.5 10.3L900 10L900 0L887.5 0C875 0 850 0 825 0C800 0 775 0 750 0C725 0 700 0 675 0C650 0 625 0 600 0C575 0 550 0 525 0C500 0 475 0 450 0C425 0 400 0 375 0C350 0 325 0 300 0C275 0 250 0 225 0C200 0 175 0 150 0C125 0 100 0 75 0C50 0 25 0 12.5 0L0 0Z" fill="#B85800" stroke-linecap="round" stroke-linejoin="miter"></path></svg>