<svg id="visual" viewBox="0 0 900 20" width="900" height="20" xmlns="http://www.w3.org/2000/svg" xmlns:xlink="http://www.w3.org/1999/xlink" version="1.1"><rect x="0" y="0" width="900" height="20" fill="#DFC19B"></rect><path d="M0 10L10 10C20 10 40 10 60 11.3C80 12.7 100 15.3 120 16.2C140 17 160 16 180 14.3C200 12.7 220 10.3 240 10.7C260 11 280 14 300 14.7C320 15.3 340 13.7 360 13.2C380 12.7 400 13.3 420 14.3C440 15.3 460 16.7 480 17.2C500 17.7 520 17.3 540 15.7C560 14 580 11 600 9.8C620 8.7 640 9.3 660 11C680 12.7 700 15.3 720 15C740 14.7 760 11.3 780 9.8C800 8.3 820 8.7 840 9.3C860 10 880 11 890 11.5L900 12L900 21L890 21C880 21 860 21 840 21C820 21 800 21 780 21C760 21 740 21 720 21C700 21 680 21 660 21C640 21 620 21 600 21C580 21 560 21 540 21C520 21 500 21 480 21C460 21 440 21 420 21C400 21 380 21 360 21C340 21 320 21 300 21C280 21 260 21 240 21C220 21 200 21 180 21C160 21 140 21 120 21C100 21 80 21 60 21C40 21 20 21 10 21L0 21Z" fill="#D9AA61" stroke-linecap="round" stroke-linejoin="miter"></path></svg>