<svg id="visual" viewBox="0 0 900 20" width="900" height="20" xmlns="http://www.w3.org/2000/svg" xmlns:xlink="http://www.w3.org/1999/xlink" version="1.1"><rect x="0" y="0" width="900" height="20" fill="#FCF3EB"></rect><path d="M0 16L11.5 15.5C23 15 46 14 69 13.5C92 13 115 13 138.2 12.8C161.3 12.7 184.7 12.3 207.8 12.3C231 12.3 254 12.7 277 13C300 13.3 323 13.7 346 13.7C369 13.7 392 13.3 415.2 13.5C438.3 13.7 461.7 14.3 484.8 14.7C508 15 531 15 554 15.2C577 15.3 600 15.7 623 15.2C646 14.7 669 13.3 692.2 12.7C715.3 12 738.7 12 761.8 12.7C785 13.3 808 14.7 831 14.8C854 15 877 14 888.5 13.5L900 13L900 21L888.5 21C877 21 854 21 831 21C808 21 785 21 761.8 21C738.7 21 715.3 21 692.2 21C669 21 646 21 623 21C600 21 577 21 554 21C531 21 508 21 484.8 21C461.7 21 438.3 21 415.2 21C392 21 369 21 346 21C323 21 300 21 277 21C254 21 231 21 207.8 21C184.7 21 161.3 21 138.2 21C115 21 92 21 69 21C46 21 23 21 11.5 21L0 21Z" fill="#fff" stroke-linecap="round" stroke-linejoin="miter"></path></svg>