<svg id="visual" viewBox="0 0 900 20" width="900" height="20" xmlns="http://www.w3.org/2000/svg" xmlns:xlink="http://www.w3.org/1999/xlink" version="1.1"><rect x="0" y="0" width="900" height="20" fill="#D9AA61"></rect><path d="M0 16L10 15.2C20 14.3 40 12.7 60 12.2C80 11.7 100 12.3 120 12.2C140 12 160 11 180 10.2C200 9.3 220 8.7 240 10C260 11.3 280 14.7 300 14.7C320 14.7 340 11.3 360 10.2C380 9 400 10 420 11.2C440 12.3 460 13.7 480 13.2C500 12.7 520 10.3 540 9.7C560 9 580 10 600 10.7C620 11.3 640 11.7 660 11.5C680 11.3 700 10.7 720 10.2C740 9.7 760 9.3 780 10C800 10.7 820 12.3 840 13.3C860 14.3 880 14.7 890 14.8L900 15L900 21L890 21C880 21 860 21 840 21C820 21 800 21 780 21C760 21 740 21 720 21C700 21 680 21 660 21C640 21 620 21 600 21C580 21 560 21 540 21C520 21 500 21 480 21C460 21 440 21 420 21C400 21 380 21 360 21C340 21 320 21 300 21C280 21 260 21 240 21C220 21 200 21 180 21C160 21 140 21 120 21C100 21 80 21 60 21C40 21 20 21 10 21L0 21Z" fill="#B85800" stroke-linecap="round" stroke-linejoin="miter"></path></svg>