<svg id="visual" viewBox="0 0 900 150" width="900" height="150" xmlns="http://www.w3.org/2000/svg" xmlns:xlink="http://www.w3.org/1999/xlink" version="1.1"><path d="M0 28L13.7 29C27.3 30 54.7 32 82 34C109.3 36 136.7 38 163.8 37.5C191 37 218 34 245.2 31C272.3 28 299.7 25 327 23C354.3 21 381.7 20 409 21C436.3 22 463.7 25 491 28.8C518.3 32.7 545.7 37.3 573 37.3C600.3 37.3 627.7 32.7 654.8 29.8C682 27 709 26 736.2 24.8C763.3 23.7 790.7 22.3 818 21.7C845.3 21 872.7 21 886.3 21L900 21L900 0L886.3 0C872.7 0 845.3 0 818 0C790.7 0 763.3 0 736.2 0C709 0 682 0 654.8 0C627.7 0 600.3 0 573 0C545.7 0 518.3 0 491 0C463.7 0 436.3 0 409 0C381.7 0 354.3 0 327 0C299.7 0 272.3 0 245.2 0C218 0 191 0 163.8 0C136.7 0 109.3 0 82 0C54.7 0 27.3 0 13.7 0L0 0Z" fill="#fcf3eb"></path><path d="M0 57L13.7 60C27.3 63 54.7 69 82 69.8C109.3 70.7 136.7 66.3 163.8 67.8C191 69.3 218 76.7 245.2 79.3C272.3 82 299.7 80 327 76.3C354.3 72.7 381.7 67.3 409 68.7C436.3 70 463.7 78 491 79.8C518.3 81.7 545.7 77.3 573 73.7C600.3 70 627.7 67 654.8 69.2C682 71.3 709 78.7 736.2 75.2C763.3 71.7 790.7 57.3 818 57C845.3 56.7 872.7 70.3 886.3 77.2L900 84L900 19L886.3 19C872.7 19 845.3 19 818 19.7C790.7 20.3 763.3 21.7 736.2 22.8C709 24 682 25 654.8 27.8C627.7 30.7 600.3 35.3 573 35.3C545.7 35.3 518.3 30.7 491 26.8C463.7 23 436.3 20 409 19C381.7 18 354.3 19 327 21C299.7 23 272.3 26 245.2 29C218 32 191 35 163.8 35.5C136.7 36 109.3 34 82 32C54.7 30 27.3 28 13.7 27L0 26Z" fill="#f6e6d7"></path><path d="M0 120L13.7 119.7C27.3 119.3 54.7 118.7 82 118.2C109.3 117.7 136.7 117.3 163.8 114.8C191 112.3 218 107.7 245.2 105.5C272.3 103.3 299.7 103.7 327 105.2C354.3 106.7 381.7 109.3 409 110.7C436.3 112 463.7 112 491 113.5C518.3 115 545.7 118 573 117.5C600.3 117 627.7 113 654.8 113C682 113 709 117 736.2 116.8C763.3 116.7 790.7 112.3 818 110.7C845.3 109 872.7 110 886.3 110.5L900 111L900 82L886.3 75.2C872.7 68.3 845.3 54.7 818 55C790.7 55.3 763.3 69.7 736.2 73.2C709 76.7 682 69.3 654.8 67.2C627.7 65 600.3 68 573 71.7C545.7 75.3 518.3 79.7 491 77.8C463.7 76 436.3 68 409 66.7C381.7 65.3 354.3 70.7 327 74.3C299.7 78 272.3 80 245.2 77.3C218 74.7 191 67.3 163.8 65.8C136.7 64.3 109.3 68.7 82 67.8C54.7 67 27.3 61 13.7 58L0 55Z" fill="#efd9c3"></path><path d="M0 136L13.7 135.3C27.3 134.7 54.7 133.3 82 134.2C109.3 135 136.7 138 163.8 136.2C191 134.3 218 127.7 245.2 124.8C272.3 122 299.7 123 327 123.3C354.3 123.7 381.7 123.3 409 122.8C436.3 122.3 463.7 121.7 491 123.7C518.3 125.7 545.7 130.3 573 131.8C600.3 133.3 627.7 131.7 654.8 131.3C682 131 709 132 736.2 132C763.3 132 790.7 131 818 129.3C845.3 127.7 872.7 125.3 886.3 124.2L900 123L900 109L886.3 108.5C872.7 108 845.3 107 818 108.7C790.7 110.3 763.3 114.7 736.2 114.8C709 115 682 111 654.8 111C627.7 111 600.3 115 573 115.5C545.7 116 518.3 113 491 111.5C463.7 110 436.3 110 409 108.7C381.7 107.3 354.3 104.7 327 103.2C299.7 101.7 272.3 101.3 245.2 103.5C218 105.7 191 110.3 163.8 112.8C136.7 115.3 109.3 115.7 82 116.2C54.7 116.7 27.3 117.3 13.7 117.7L0 118Z" fill="#e7cdaf"></path><path d="M0 151L13.7 151C27.3 151 54.7 151 82 151C109.3 151 136.7 151 163.8 151C191 151 218 151 245.2 151C272.3 151 299.7 151 327 151C354.3 151 381.7 151 409 151C436.3 151 463.7 151 491 151C518.3 151 545.7 151 573 151C600.3 151 627.7 151 654.8 151C682 151 709 151 736.2 151C763.3 151 790.7 151 818 151C845.3 151 872.7 151 886.3 151L900 151L900 121L886.3 122.2C872.7 123.3 845.3 125.7 818 127.3C790.7 129 763.3 130 736.2 130C709 130 682 129 654.8 129.3C627.7 129.7 600.3 131.3 573 129.8C545.7 128.3 518.3 123.7 491 121.7C463.7 119.7 436.3 120.3 409 120.8C381.7 121.3 354.3 121.7 327 121.3C299.7 121 272.3 120 245.2 122.8C218 125.7 191 132.3 163.8 134.2C136.7 136 109.3 133 82 132.2C54.7 131.3 27.3 132.7 13.7 133.3L0 134Z" fill="#dfc19b"></path></svg>