<svg id="visual" viewBox="0 0 900 20" width="900" height="20" xmlns="http://www.w3.org/2000/svg" xmlns:xlink="http://www.w3.org/1999/xlink" version="1.1"><rect x="0" y="0" width="900" height="20" fill="#fff"></rect><path d="M0 14L10.7 13.2C21.3 12.3 42.7 10.7 64.2 10.3C85.7 10 107.3 11 128.8 11.7C150.3 12.3 171.7 12.7 193 12.3C214.3 12 235.7 11 257 10.3C278.3 9.7 299.7 9.3 321.2 9.5C342.7 9.7 364.3 10.3 385.8 10.8C407.3 11.3 428.7 11.7 450 12.2C471.3 12.7 492.7 13.3 514.2 13C535.7 12.7 557.3 11.3 578.8 11.3C600.3 11.3 621.7 12.7 643 12.5C664.3 12.3 685.7 10.7 707 10.2C728.3 9.7 749.7 10.3 771.2 11C792.7 11.7 814.3 12.3 835.8 13C857.3 13.7 878.7 14.3 889.3 14.7L900 15L900 21L889.3 21C878.7 21 857.3 21 835.8 21C814.3 21 792.7 21 771.2 21C749.7 21 728.3 21 707 21C685.7 21 664.3 21 643 21C621.7 21 600.3 21 578.8 21C557.3 21 535.7 21 514.2 21C492.7 21 471.3 21 450 21C428.7 21 407.3 21 385.8 21C364.3 21 342.7 21 321.2 21C299.7 21 278.3 21 257 21C235.7 21 214.3 21 193 21C171.7 21 150.3 21 128.8 21C107.3 21 85.7 21 64.2 21C42.7 21 21.3 21 10.7 21L0 21Z" fill="#FCF3EB" stroke-linecap="round" stroke-linejoin="miter"></path></svg>